# xmcd
#
# Track frame offsets:
# 150
# 19456
# 31683
# 48635
# 70960
# 86929
# 100943
# 118035
# 135189
# 153749
# 170006
# 184701
#
# Disc length: 2756 seconds
#
#
# Revision: 2
# Processed by: cddbd v1.5.2PL0 Copyright (c) Steve Scherf et al.
# Submitted via: FreeRIP 2.96 
#
DISCID=a40ac20c
DTITLE=Travis Sinclair - Rush
DYEAR=2005
DGENRE=Country
TTITLE0=Rush
TTITLE1=A Heavenly Body
TTITLE2=Wheels Are Smokin'
TTITLE3=The Boy In The Aerodyne
TTITLE4=Midnight Run
TTITLE5=Carry The Country
TTITLE6=I Know Your Out There
TTITLE7=Rockin' The Rig
TTITLE8=The Better Part Of Me
TTITLE9=I'm A Trucker (King Of Cool)
TTITLE10=Shove A Lump Of Wood In That Hole
TTITLE11=Glory Bound
EXTD=
EXTT0=
EXTT1=
EXTT2=
EXTT3=
EXTT4=
EXTT5=
EXTT6=
EXTT7=
EXTT8=
EXTT9=
EXTT10=
EXTT11=
PLAYORDER=
